<svg height="700" viewBox="0 0 1050 700" width="1050" xmlns="http://www.w3.org/2000/svg" xmlns:xlink="http://www.w3.org/1999/xlink"><mask id="a" fill="#fff"><path d="m0 0h1050v699.5h-1050z" fill="#fff" fill-rule="evenodd"/></mask><g fill="none" fill-rule="evenodd"><path d="m843.123863-13c130.407609 0 236.123867 76.902918 236.123867 236.123863s-236.123867 397.876137-236.123867 397.876137-236.123863-238.655192-236.123863-397.876137 105.716254-236.123863 236.123863-236.123863zm0 81.5168902c-81.474239 0-147.52216 66.0479208-147.52216 147.5221598 0 81.47424 66.047921 147.522161 147.52216 147.522161s147.52216-66.047921 147.52216-147.522161c0-81.474239-66.047921-147.5221598-147.52216-147.5221598zm0 33.3030918c63.08145 0 114.219069 51.137619 114.219069 114.219068 0 63.08145-51.137619 114.219069-114.219069 114.219069s-114.219069-51.137619-114.219069-114.219069c0-63.081449 51.137619-114.219068 114.219069-114.219068z" fill="#2a4d5e" mask="url(#a)"/><path d="m169.076641-13c74.048485 0 134.076642 43.6672721 134.076642 134.076641 0 90.40937-134.076642 225.923359-134.076642 225.923359s-134.076641-135.513989-134.076641-225.923359c0-90.4093689 60.0281571-134.076641 134.076641-134.076641zm0 46.2871932c-46.262975 0-83.7665259 37.5035513-83.7665259 83.7665268 0 46.262975 37.5035509 83.766526 83.7665259 83.766526s83.766527-37.503551 83.766527-83.766526c0-46.2629755-37.503552-83.7665268-83.766527-83.7665268zm0 18.9102729c35.81912 0 64.856254 29.0371337 64.856254 64.8562539 0 35.819119-29.037134 64.856253-64.856254 64.856253-35.819119 0-64.856253-29.037134-64.856253-64.856253 0-35.8191202 29.037134-64.8562539 64.856253-64.8562539z" fill="#2a4d5e" mask="url(#a)"/><path d="m166.75674 339.884766c-121.7024099 49.691406-155.38174 82.383463-101.03799 98.076171 38.261965 11.048812 209.552563-22.141779 354.28125-23.457031 163.610137-1.486841 306.884112 43.847008 223.5 83.699219-156.5 74.796875-123.376137 139.219641 199.623863 115.219641" mask="url(static/svg/bg-sites-and-contacts.svg)" stroke="#2a4d5e" stroke-width="15"/></g></svg>